<mxfile host="app.diagrams.net" modified="2022-08-04T07:44:19.205Z" agent="5.0 (Macintosh; Intel Mac OS X 10_15_7) AppleWebKit/537.36 (KHTML, like Gecko) Chrome/103.0.0.0 Safari/537.36" etag="DVYasn-pDH0iGNJB4mO1" version="20.2.3" type="github">
  <diagram id="C5RBs43oDa-KdzZeNtuy" name="Page-1">
    <mxGraphModel dx="946" dy="646" grid="1" gridSize="10" guides="1" tooltips="1" connect="1" arrows="1" fold="1" page="1" pageScale="1" pageWidth="10000" pageHeight="10000" math="0" shadow="0">
      <root>
        <mxCell id="WIyWlLk6GJQsqaUBKTNV-0" />
        <mxCell id="WIyWlLk6GJQsqaUBKTNV-1" parent="WIyWlLk6GJQsqaUBKTNV-0" />
        <mxCell id="umvHntMu8Yq3eFo3_Gom-13" value="" style="rounded=0;whiteSpace=wrap;html=1;fillColor=none;dashed=1;" vertex="1" parent="WIyWlLk6GJQsqaUBKTNV-1">
          <mxGeometry x="170" y="94" width="270" height="240" as="geometry" />
        </mxCell>
        <mxCell id="umvHntMu8Yq3eFo3_Gom-5" style="edgeStyle=orthogonalEdgeStyle;rounded=0;orthogonalLoop=1;jettySize=auto;html=1;exitX=1;exitY=0.5;exitDx=0;exitDy=0;" edge="1" parent="WIyWlLk6GJQsqaUBKTNV-1" source="umvHntMu8Yq3eFo3_Gom-0">
          <mxGeometry relative="1" as="geometry">
            <mxPoint x="480" y="338" as="targetPoint" />
            <Array as="points">
              <mxPoint x="450" y="378" />
              <mxPoint x="450" y="338" />
            </Array>
          </mxGeometry>
        </mxCell>
        <mxCell id="umvHntMu8Yq3eFo3_Gom-0" value="更新星图&amp;amp;明鉴标签数据" style="rounded=1;whiteSpace=wrap;html=1;" vertex="1" parent="WIyWlLk6GJQsqaUBKTNV-1">
          <mxGeometry x="300" y="348" width="120" height="60" as="geometry" />
        </mxCell>
        <mxCell id="umvHntMu8Yq3eFo3_Gom-4" style="edgeStyle=orthogonalEdgeStyle;rounded=0;orthogonalLoop=1;jettySize=auto;html=1;exitX=1;exitY=0.5;exitDx=0;exitDy=0;entryX=0;entryY=0.5;entryDx=0;entryDy=0;" edge="1" parent="WIyWlLk6GJQsqaUBKTNV-1" source="umvHntMu8Yq3eFo3_Gom-1" target="umvHntMu8Yq3eFo3_Gom-2">
          <mxGeometry relative="1" as="geometry" />
        </mxCell>
        <mxCell id="umvHntMu8Yq3eFo3_Gom-1" value="更新dps数据" style="rounded=1;whiteSpace=wrap;html=1;" vertex="1" parent="WIyWlLk6GJQsqaUBKTNV-1">
          <mxGeometry x="300" y="268" width="120" height="60" as="geometry" />
        </mxCell>
        <mxCell id="umvHntMu8Yq3eFo3_Gom-6" style="edgeStyle=orthogonalEdgeStyle;rounded=0;orthogonalLoop=1;jettySize=auto;html=1;exitX=1;exitY=0.5;exitDx=0;exitDy=0;entryX=0;entryY=0.5;entryDx=0;entryDy=0;" edge="1" parent="WIyWlLk6GJQsqaUBKTNV-1" source="umvHntMu8Yq3eFo3_Gom-2" target="umvHntMu8Yq3eFo3_Gom-3">
          <mxGeometry relative="1" as="geometry" />
        </mxCell>
        <mxCell id="umvHntMu8Yq3eFo3_Gom-2" value="构建标签转换关系" style="rounded=1;whiteSpace=wrap;html=1;" vertex="1" parent="WIyWlLk6GJQsqaUBKTNV-1">
          <mxGeometry x="480" y="308" width="120" height="60" as="geometry" />
        </mxCell>
        <mxCell id="umvHntMu8Yq3eFo3_Gom-3" value="更新标签数据" style="rounded=1;whiteSpace=wrap;html=1;" vertex="1" parent="WIyWlLk6GJQsqaUBKTNV-1">
          <mxGeometry x="640" y="308" width="120" height="60" as="geometry" />
        </mxCell>
        <mxCell id="umvHntMu8Yq3eFo3_Gom-12" style="edgeStyle=orthogonalEdgeStyle;rounded=0;orthogonalLoop=1;jettySize=auto;html=1;exitX=0.5;exitY=1;exitDx=0;exitDy=0;" edge="1" parent="WIyWlLk6GJQsqaUBKTNV-1" source="umvHntMu8Yq3eFo3_Gom-7" target="umvHntMu8Yq3eFo3_Gom-8">
          <mxGeometry relative="1" as="geometry" />
        </mxCell>
        <mxCell id="umvHntMu8Yq3eFo3_Gom-7" value="上传文件" style="rounded=1;whiteSpace=wrap;html=1;" vertex="1" parent="WIyWlLk6GJQsqaUBKTNV-1">
          <mxGeometry x="300" y="110" width="120" height="60" as="geometry" />
        </mxCell>
        <mxCell id="umvHntMu8Yq3eFo3_Gom-11" style="edgeStyle=orthogonalEdgeStyle;rounded=0;orthogonalLoop=1;jettySize=auto;html=1;exitX=0.5;exitY=1;exitDx=0;exitDy=0;" edge="1" parent="WIyWlLk6GJQsqaUBKTNV-1" source="umvHntMu8Yq3eFo3_Gom-8" target="umvHntMu8Yq3eFo3_Gom-1">
          <mxGeometry relative="1" as="geometry" />
        </mxCell>
        <mxCell id="umvHntMu8Yq3eFo3_Gom-8" value="解析文件" style="rounded=1;whiteSpace=wrap;html=1;" vertex="1" parent="WIyWlLk6GJQsqaUBKTNV-1">
          <mxGeometry x="300" y="190" width="120" height="60" as="geometry" />
        </mxCell>
        <mxCell id="umvHntMu8Yq3eFo3_Gom-10" style="edgeStyle=orthogonalEdgeStyle;rounded=0;orthogonalLoop=1;jettySize=auto;html=1;exitX=0.5;exitY=0;exitDx=0;exitDy=0;entryX=0.5;entryY=1;entryDx=0;entryDy=0;" edge="1" parent="WIyWlLk6GJQsqaUBKTNV-1" source="umvHntMu8Yq3eFo3_Gom-9" target="umvHntMu8Yq3eFo3_Gom-0">
          <mxGeometry relative="1" as="geometry" />
        </mxCell>
        <mxCell id="umvHntMu8Yq3eFo3_Gom-9" value="底层标签数据" style="rounded=1;whiteSpace=wrap;html=1;" vertex="1" parent="WIyWlLk6GJQsqaUBKTNV-1">
          <mxGeometry x="300" y="430" width="120" height="60" as="geometry" />
        </mxCell>
        <mxCell id="umvHntMu8Yq3eFo3_Gom-14" value="dps" style="text;html=1;strokeColor=none;fillColor=none;align=center;verticalAlign=middle;whiteSpace=wrap;rounded=0;dashed=1;" vertex="1" parent="WIyWlLk6GJQsqaUBKTNV-1">
          <mxGeometry x="180" y="110" width="60" height="30" as="geometry" />
        </mxCell>
        <mxCell id="umvHntMu8Yq3eFo3_Gom-15" value="" style="rounded=0;whiteSpace=wrap;html=1;fillColor=none;dashed=1;" vertex="1" parent="WIyWlLk6GJQsqaUBKTNV-1">
          <mxGeometry x="170" y="340" width="270" height="160" as="geometry" />
        </mxCell>
        <mxCell id="umvHntMu8Yq3eFo3_Gom-16" value="明鉴&amp;amp;星图" style="text;html=1;strokeColor=none;fillColor=none;align=center;verticalAlign=middle;whiteSpace=wrap;rounded=0;dashed=1;" vertex="1" parent="WIyWlLk6GJQsqaUBKTNV-1">
          <mxGeometry x="180" y="350" width="60" height="30" as="geometry" />
        </mxCell>
      </root>
    </mxGraphModel>
  </diagram>
</mxfile>
